# xmcd
#
# Track frame offsets: 
#        150
#        14382
#        32697
#        45019
#        56893
#        79654
#        91756
#        112346
#        119627
#        135695
#        150001
#        172302
#        180687
#        202428
#        212926
#
# Disc length: 3136 seconds
#
# Revision: 0
# Processed by: cddbd v1.5.2PL0 Copyright (c) Steve Scherf et al.
# Submitted via: ExactAudioCopy v1.0b3
#
DISCID=d40c3e0f
DTITLE=Various Artist - Romanțe
DYEAR=1900
DGENRE=
TTITLE0=Nelu Ploiesteanu - O lume întreagă se întreabă
TTITLE1=Ștefan Iordache - Să-mi cânți cobzar
TTITLE2=Nelu Ploiesteanu - Țigane ai îmbătrânit
TTITLE3=Gheorghe Dinică - Afară e întuneric
TTITLE4=Nelu Ploiesteanu - Să nu spui dorul nimănui
TTITLE5=Ștefan Iordache - Mână birjar
TTITLE6=Nelu Ploiesteanu - Mă cheamă dorul acasă
TTITLE7=Gheorghe Dinică - De ești supărată
TTITLE8=Nelu Ploiesteanu - Călugărul din vechiul sat
TTITLE9=Ștefan Iordache - Ce cauți tu în viața mea
TTITLE10=Nelu Ploiesteanu - În micul orășel uitat de lume
TTITLE11=Gheorghe Dinică - Ce aveți dușmani cu mine
TTITLE12=Nelu Ploiesteanu - În taverna din port
TTITLE13=Gheorghe Dinică - Trubadurul
TTITLE14=Nelu Ploiesteanu - Trec ani la rând (Cânta-mi lăutare)
EXTD=
EXTT0=
EXTT1=
EXTT2=
EXTT3=
EXTT4=
EXTT5=
EXTT6=
EXTT7=
EXTT8=
EXTT9=
EXTT10=
EXTT11=
EXTT12=
EXTT13=
EXTT14=
PLAYORDER=
